{
  "accessors": [
    {
      "bufferView": 2,
      "componentType": 5126,
      "count": 14188,
      "max": [
        12.5,
        12.5,
        56.0
      ],
      "min": [
        0.0,
        0.0,
        0.0
      ],
      "type": "VEC3"
    },
    {
      "bufferView": 2,
      "byteOffset": 170256,
      "componentType": 5126,
      "count": 14188,
      "max": [
        0.9996834397315979,
        0.9996834397315979,
        1.0
      ],
      "min": [
        -0.9996834397315979,
        -0.9996988773345947,
        -0.999997615814209
      ],
      "type": "VEC3"
    },
    {
      "bufferView": 1,
      "componentType": 5126,
      "count": 14188,
      "max": [
        1.0,
        1.0
      ],
      "min": [
        0.0,
        0.0
      ],
      "type": "VEC2"
    },
    {
      "bufferView": 0,
      "componentType": 5125,
      "count": 82944,
      "type": "SCALAR"
    },
    {
      "bufferView": 2,
      "byteOffset": 340512,
      "componentType": 5126,
      "count": 1876,
      "max": [
        12.324999809265137,
        12.324999809265137,
        67.80999755859375
      ],
      "min": [
        0.17500019073486328,
        0.17499995231628418,
        53.04999923706055
      ],
      "type": "VEC3"
    },
    {
      "bufferView": 2,
      "byteOffset": 363024,
      "componentType": 5126,
      "count": 1876,
      "max": [
        1.0,
        0.9998095631599426,
        1.0
      ],
      "min": [
        -1.0,
        -0.9998999834060669,
        -1.0
      ],
      "type": "VEC3"
    },
    {
      "bufferView": 1,
      "byteOffset": 113504,
      "componentType": 5126,
      "count": 1876,
      "max": [
        0.955644965171814,
        0.99853515625
      ],
      "min": [
        0.0,
        0.0
      ],
      "type": "VEC2"
    },
    {
      "bufferView": 0,
      "byteOffset": 331776,
      "componentType": 5125,
      "count": 7878,
      "type": "SCALAR"
    },
    {
      "bufferView": 2,
      "byteOffset": 385536,
      "componentType": 5126,
      "count": 434,
      "max": [
        11.5,
        11.5,
        52.29999923706055
      ],
      "min": [
        1.0,
        1.0,
        52.29999923706055
      ],
      "type": "VEC3"
    },
    {
      "bufferView": 2,
      "byteOffset": 390744,
      "componentType": 5126,
      "count": 434,
      "max": [
        0.0,
        0.0,
        -1.0
      ],
      "min": [
        0.0,
        0.0,
        -1.0
      ],
      "type": "VEC3"
    },
    {
      "bufferView": 1,
      "byteOffset": 128512,
      "componentType": 5126,
      "count": 434,
      "max": [
        1.0,
        1.0
      ],
      "min": [
        0.0,
        0.0
      ],
      "type": "VEC2"
    },
    {
      "bufferView": 0,
      "byteOffset": 363288,
      "componentType": 5125,
      "count": 1296,
      "type": "SCALAR"
    },
    {
      "bufferView": 2,
      "byteOffset": 395952,
      "componentType": 5126,
      "count": 4934,
      "max": [
        11.800000190734863,
        11.800000190734863,
        69.0
      ],
      "min": [
        0.6999998092651367,
        0.699999988079071,
        55.95000076293945
      ],
      "type": "VEC3"
    },
    {
      "bufferView": 2,
      "byteOffset": 455160,
      "componentType": 5126,
      "count": 4934,
      "max": [
        1.0,
        1.0,
        1.0
      ],
      "min": [
        -1.0,
        -0.9999384880065918,
        -1.0
      ],
      "type": "VEC3"
    },
    {
      "bufferView": 1,
      "byteOffset": 131984,
      "componentType": 5126,
      "count": 4934,
      "max": [
        0.8304967880249023,
        0.99853515625
      ],
      "min": [
        0.0,
        0.0
      ],
      "type": "VEC2"
    },
    {
      "bufferView": 0,
      "byteOffset": 368472,
      "componentType": 5125,
      "count": 22752,
      "type": "SCALAR"
    },
    {
      "bufferView": 2,
      "byteOffset": 514368,
      "componentType": 5126,
      "count": 344,
      "max": [
        11.234999656677246,
        8.25,
        77.80000305175781
      ],
      "min": [
        10.816205024719238,
        4.25,
        73.80000305175781
      ],
      "type": "VEC3"
    },
    {
      "bufferView": 2,
      "byteOffset": 518496,
      "componentType": 5126,
      "count": 344,
      "max": [
        1.0,
        0.41278034448623657,
        0.0015941259916871786
      ],
      "min": [
        0.9108008146286011,
        -0.412846177816391,
        -0.001594317378476262
      ],
      "type": "VEC3"
    },
    {
      "bufferView": 1,
      "byteOffset": 171456,
      "componentType": 5126,
      "count": 344,
      "max": [
        0.31570401787757874,
        0.5556159615516663
      ],
      "min": [
        0.18429599702358246,
        0.29421359300613403
      ],
      "type": "VEC2"
    },
    {
      "bufferView": 0,
      "byteOffset": 459480,
      "componentType": 5125,
      "count": 1104,
      "type": "SCALAR"
    },
    {
      "bufferView": 2,
      "byteOffset": 522624,
      "componentType": 5126,
      "count": 3559,
      "max": [
        11.449999809265137,
        11.449999809265137,
        78.75999450683594
      ],
      "min": [
        1.0500001907348633,
        1.0499999523162842,
        66.4000015258789
      ],
      "type": "VEC3"
    },
    {
      "bufferView": 2,
      "byteOffset": 565332,
      "componentType": 5126,
      "count": 3559,
      "max": [
        1.0,
        1.0,
        1.0
      ],
      "min": [
        -1.0,
        -1.0,
        -1.0
      ],
      "type": "VEC3"
    },
    {
      "bufferView": 1,
      "byteOffset": 174208,
      "componentType": 5126,
      "count": 3559,
      "max": [
        0.8456528782844543,
        0.99853515625
      ],
      "min": [
        0.0,
        0.0
      ],
      "type": "VEC2"
    },
    {
      "bufferView": 0,
      "byteOffset": 463896,
      "componentType": 5125,
      "count": 13620,
      "type": "SCALAR"
    },
    {
      "bufferView": 2,
      "byteOffset": 608040,
      "componentType": 5126,
      "count": 2544,
      "max": [
        8.443750381469727,
        8.443750381469727,
        54.95000076293945
      ],
      "min": [
        4.056250095367432,
        1.2453807592391968,
        1.2660713195800781
      ],
      "type": "VEC3"
    },
    {
      "bufferView": 2,
      "byteOffset": 638568,
      "componentType": 5126,
      "count": 2544,
      "max": [
        1.0,
        1.0,
        0.19422246515750885
      ],
      "min": [
        -0.9999368190765381,
        -0.9989882707595825,
        -0.8433642387390137
      ],
      "type": "VEC3"
    },
    {
      "bufferView": 1,
      "byteOffset": 202680,
      "componentType": 5126,
      "count": 2544,
      "max": [
        0.8913804292678833,
        0.9924958348274231
      ],
      "min": [
        0.0022735893726348877,
        0.0
      ],
      "type": "VEC2"
    },
    {
      "bufferView": 0,
      "byteOffset": 518376,
      "componentType": 5125,
      "count": 13896,
      "type": "SCALAR"
    },
    {
      "bufferView": 2,
      "byteOffset": 669096,
      "componentType": 5126,
      "count": 33824,
      "max": [
        7.487489223480225,
        7.487500190734863,
        52.69017028808594
      ],
      "min": [
        5.012516498565674,
        5.012539863586426,
        43.50070571899414
      ],
      "type": "VEC3"
    },
    {
      "bufferView": 2,
      "byteOffset": 1074984,
      "componentType": 5126,
      "count": 33824,
      "max": [
        0.999998927116394,
        0.9999294281005859,
        0.9944088459014893
      ],
      "min": [
        -0.9997935891151428,
        -0.9999293684959412,
        -0.9944131970405579
      ],
      "type": "VEC3"
    },
    {
      "bufferView": 1,
      "byteOffset": 223032,
      "componentType": 5126,
      "count": 33824,
      "max": [
        0.35333091020584106,
        0.9975600838661194
      ],
      "min": [
        0.34559762477874756,
        0.0
      ],
      "type": "VEC2"
    },
    {
      "bufferView": 0,
      "byteOffset": 573960,
      "componentType": 5125,
      "count": 196503,
      "type": "SCALAR"
    },
    {
      "bufferView": 2,
      "byteOffset": 1480872,
      "componentType": 5126,
      "count": 756,
      "max": [
        6.362262725830078,
        7.487500190734863,
        52.69971466064453
      ],
      "min": [
        6.137819290161133,
        7.260268688201904,
        43.500205993652344
      ],
      "type": "VEC3"
    },
    {
      "bufferView": 2,
      "byteOffset": 1489944,
      "componentType": 5126,
      "count": 756,
      "max": [
        0.9994928240776062,
        0.9986676573753357,
        0.9992218017578125
      ],
      "min": [
        -0.9996657967567444,
        -0.9980266690254211,
        -0.9997067451477051
      ],
      "type": "VEC3"
    },
    {
      "bufferView": 1,
      "byteOffset": 493624,
      "componentType": 5126,
      "count": 756,
      "max": [
        0.35333091020584106,
        0.99853515625
      ],
      "min": [
        0.0,
        0.0
      ],
      "type": "VEC2"
    },
    {
      "bufferView": 0,
      "byteOffset": 1359972,
      "componentType": 5125,
      "count": 3351,
      "type": "SCALAR"
    }
  ],
  "asset": {
    "extras": {
      "author": "LEOLATO (https://sketchfab.com/LEOLATO)",
      "license": "CC-BY-4.0 (http://creativecommons.org/licenses/by/4.0/)",
      "source": "https://sketchfab.com/3d-models/atomizador-para-perfume-1eb44518f21f4da78d26fe40e94b82c7",
      "title": "Atomizador para Perfume"
    },
    "generator": "Sketchfab-12.67.0",
    "version": "2.0"
  },
  "bufferViews": [
    {
      "buffer": 0,
      "byteLength": 1373376,
      "name": "floatBufferViews",
      "target": 34963
    },
    {
      "buffer": 0,
      "byteLength": 499672,
      "byteOffset": 1373376,
      "byteStride": 8,
      "name": "floatBufferViews",
      "target": 34962
    },
    {
      "buffer": 0,
      "byteLength": 1499016,
      "byteOffset": 1873048,
      "byteStride": 12,
      "name": "floatBufferViews",
      "target": 34962
    }
  ],
  "buffers": [
    {
      "byteLength": 3372064,
      "uri": "scene.bin"
    }
  ],
  "materials": [
    {
      "alphaMode": "BLEND",
      "doubleSided": true,
      "name": "DefaultMaterial3",
      "pbrMetallicRoughness": {
        "baseColorFactor": [
          0.980392,
          0.980392,
          0.980392,
          0.1873094512195121
        ],
        "roughnessFactor": 0.0
      }
    },
    {
      "alphaMode": "BLEND",
      "doubleSided": true,
      "name": "DefaultMaterial5",
      "pbrMetallicRoughness": {
        "baseColorFactor": [
          1.0,
          1.0,
          1.0,
          0.49828506097560976
        ],
        "metallicFactor": 0.0,
        "roughnessFactor": 0.0
      }
    },
    {
      "doubleSided": true,
      "name": "mat2",
      "pbrMetallicRoughness": {
        "baseColorFactor": [
          0.0,
          0.0,
          0.0,
          1.0
        ],
        "metallicFactor": 0.0,
        "roughnessFactor": 0.6
      }
    },
    {
      "doubleSided": true,
      "name": "Poypropylene",
      "pbrMetallicRoughness": {
        "metallicFactor": 0.0,
        "roughnessFactor": 0.6
      }
    },
    {
      "doubleSided": true,
      "name": "DefaultMaterial2",
      "pbrMetallicRoughness": {
        "metallicFactor": 0.0,
        "roughnessFactor": 0.6
      }
    },
    {
      "alphaMode": "BLEND",
      "doubleSided": true,
      "name": "Wine",
      "pbrMetallicRoughness": {
        "baseColorFactor": [
          0.992157,
          0.992157,
          0.992157,
          0.266577743902439
        ],
        "metallicFactor": 0.12366615853658537,
        "roughnessFactor": 0.0
      }
    },
    {
      "alphaMode": "BLEND",
      "doubleSided": true,
      "name": "DefaultMaterial",
      "pbrMetallicRoughness": {
        "baseColorFactor": [
          0.901961,
          0.901961,
          0.901961,
          0.3214557926829268
        ],
        "metallicFactor": 0.0,
        "roughnessFactor": 0.12023628048780488
      }
    },
    {
      "doubleSided": true,
      "name": "DefaultMaterial1",
      "pbrMetallicRoughness": {
        "baseColorFactor": [
          1.0,
          1.0,
          0.937255,
          1.0
        ],
        "metallicFactor": 0.9529344512195121,
        "roughnessFactor": 0.0
      }
    }
  ],
  "meshes": [
    {
      "name": "Object_0",
      "primitives": [
        {
          "attributes": {
            "NORMAL": 1,
            "POSITION": 0,
            "TEXCOORD_0": 2
          },
          "indices": 3,
          "material": 0,
          "mode": 4
        }
      ]
    },
    {
      "name": "Object_1",
      "primitives": [
        {
          "attributes": {
            "NORMAL": 5,
            "POSITION": 4,
            "TEXCOORD_0": 6
          },
          "indices": 7,
          "material": 1,
          "mode": 4
        }
      ]
    },
    {
      "name": "Object_2",
      "primitives": [
        {
          "attributes": {
            "NORMAL": 9,
            "POSITION": 8,
            "TEXCOORD_0": 10
          },
          "indices": 11,
          "material": 2,
          "mode": 4
        }
      ]
    },
    {
      "name": "Object_3",
      "primitives": [
        {
          "attributes": {
            "NORMAL": 13,
            "POSITION": 12,
            "TEXCOORD_0": 14
          },
          "indices": 15,
          "material": 3,
          "mode": 4
        }
      ]
    },
    {
      "name": "Object_4",
      "primitives": [
        {
          "attributes": {
            "NORMAL": 17,
            "POSITION": 16,
            "TEXCOORD_0": 18
          },
          "indices": 19,
          "material": 4,
          "mode": 4
        }
      ]
    },
    {
      "name": "Object_5",
      "primitives": [
        {
          "attributes": {
            "NORMAL": 21,
            "POSITION": 20,
            "TEXCOORD_0": 22
          },
          "indices": 23,
          "material": 5,
          "mode": 4
        }
      ]
    },
    {
      "name": "Object_6",
      "primitives": [
        {
          "attributes": {
            "NORMAL": 25,
            "POSITION": 24,
            "TEXCOORD_0": 26
          },
          "indices": 27,
          "material": 6,
          "mode": 4
        }
      ]
    },
    {
      "name": "Object_7",
      "primitives": [
        {
          "attributes": {
            "NORMAL": 29,
            "POSITION": 28,
            "TEXCOORD_0": 30
          },
          "indices": 31,
          "material": 7,
          "mode": 4
        }
      ]
    },
    {
      "name": "Object_8",
      "primitives": [
        {
          "attributes": {
            "NORMAL": 33,
            "POSITION": 32,
            "TEXCOORD_0": 34
          },
          "indices": 35,
          "material": 7,
          "mode": 4
        }
      ]
    }
  ],
  "nodes": [
    {
      "children": [
        1
      ],
      "matrix": [
        1.0,
        0.0,
        0.0,
        0.0,
        0.0,
        2.220446049250313e-16,
        -1.0,
        0.0,
        0.0,
        1.0,
        2.220446049250313e-16,
        0.0,
        0.0,
        0.0,
        0.0,
        1.0
      ],
      "name": "Sketchfab_model"
    },
    {
      "children": [
        2
      ],
      "matrix": [
        1.0,
        0.0,
        0.0,
        0.0,
        0.0,
        1.0,
        0.0,
        0.0,
        0.0,
        0.0,
        1.0,
        0.0,
        -9.25,
        -1.6199989318847656,
        -30.630001068115234,
        1.0
      ],
      "name": "52f2f783bf174898b8d7245403d8b7a8.3ds.cleaner.gles"
    },
    {
      "children": [
        3,
        4,
        5,
        6,
        7,
        8,
        9,
        10,
        11
      ],
      "name": "/sketchfab-data/processing/2bb9ad87c5d4449aa1f93e12b20e03d4/preprocess/52f2f783bf174898b8d7245403d8b7a8.3ds"
    },
    {
      "mesh": 0,
      "name": "Object_3"
    },
    {
      "mesh": 1,
      "name": "Object_4"
    },
    {
      "mesh": 2,
      "name": "Object_5"
    },
    {
      "mesh": 3,
      "name": "Object_6"
    },
    {
      "mesh": 4,
      "name": "Object_7"
    },
    {
      "mesh": 5,
      "name": "Object_8"
    },
    {
      "mesh": 6,
      "name": "Object_9"
    },
    {
      "mesh": 7,
      "name": "Object_10"
    },
    {
      "mesh": 8,
      "name": "Object_11"
    }
  ],
  "scene": 0,
  "scenes": [
    {
      "name": "Sketchfab_Scene",
      "nodes": [
        0
      ]
    }
  ]
}
